<svg id="Layer_1" data-name="Layer 1" xmlns="http://www.w3.org/2000/svg" xmlns:xlink="http://www.w3.org/1999/xlink" viewBox="0 0 6550 2047"><defs><style>.cls-1,.cls-9{fill:none;}.cls-2{clip-path:url(#clip-path);}.cls-3{fill:#4f1ff5;}.cls-4{fill:#ded98e;}.cls-12,.cls-13,.cls-14,.cls-15,.cls-16,.cls-17,.cls-18,.cls-20,.cls-21,.cls-23,.cls-24,.cls-25,.cls-26,.cls-28,.cls-29,.cls-30,.cls-31,.cls-32,.cls-33,.cls-34,.cls-35,.cls-36,.cls-37,.cls-4,.cls-40,.cls-42,.cls-43,.cls-46,.cls-48,.cls-49,.cls-5,.cls-50,.cls-51,.cls-52,.cls-54,.cls-55,.cls-56,.cls-57,.cls-58,.cls-59,.cls-6,.cls-60,.cls-61,.cls-62,.cls-63,.cls-7,.cls-8,.cls-9{stroke:#000;stroke-linejoin:round;stroke-width:6.81px;}.cls-5{fill:#fb8e8e;}.cls-25,.cls-6{fill:#fff;}.cls-28,.cls-34,.cls-6,.cls-9{stroke-linecap:round;}.cls-7{fill:#ff8650;}.cls-8{fill:#5e77cc;}.cls-10,.cls-49{fill:#563936;}.cls-11,.cls-13{fill:#7695b5;}.cls-12{fill:#8f7468;}.cls-14{fill:#b8cae3;}.cls-15{fill:#e1e8f3;}.cls-16{fill:#f96161;}.cls-17{fill:#4156fd;}.cls-18{fill:#d18665;}.cls-19{fill:#3b4b5b;}.cls-20{fill:#fb8889;}.cls-21{fill:#844529;}.cls-22{fill:#4b61cd;}.cls-23{fill:#d74d53;}.cls-24{fill:#e89c79;}.cls-26{fill:#ffda5e;}.cls-27{fill:#4f6379;}.cls-28{fill:#ef6c5d;}.cls-29{fill:#fca788;}.cls-30{fill:#405629;}.cls-31{fill:#7a3c36;}.cls-32{fill:#80ab52;}.cls-33,.cls-34{fill:#fec515;}.cls-35{fill:#cf7913;}.cls-36{fill:#fba29c;}.cls-37{fill:#4f9cb9;}.cls-38{fill:#7d8b9a;}.cls-39{fill:#f08400;}.cls-40{fill:#9bc7d7;}.cls-41{fill:#2c170e;}.cls-42{fill:#f95556;}.cls-43{fill:#ffad73;}.cls-44{fill:#9da8b4;}.cls-45{fill:#5c6e81;}.cls-46{fill:#3e55ca;}.cls-47{fill:#63341f;}.cls-48{fill:#452824;}.cls-50{fill:#fdc6c7;}.cls-51{fill:#fe9800;}.cls-52{fill:#747fd2;}.cls-53{fill:#fa7272;}.cls-54{fill:#705f5c;}.cls-55{fill:#988684;}.cls-56{fill:#744a58;}.cls-57{fill:#ffa35c;}.cls-58{fill:#9faae4;}.cls-59{fill:#5e72d3;}.cls-60{fill:#ad272d;}.cls-61{fill:#8b6874;}.cls-62{fill:#72b0c7;}.cls-63{fill:#dcebf1;}.cls-64{font-size:12px;font-family:MyriadPro-Regular, Myriad Pro;}</style><clipPath id="clip-path"><rect class="cls-1" y="47" width="6550" height="2000"/></clipPath></defs><g class="cls-2"><rect class="cls-3" y="47" width="6550" height="2000"/><path class="cls-4" d="M6337,1900.31l86.94,498.63-65.74,347-88.75-10.59s27.39-337.48,27.39-343-109-285.36-109-285.36l38.84-162.77Z"/><path class="cls-4" d="M6337,1900.31H6042s-21.32,173.2,12.64,333.18S6139.05,2789,6139.05,2789h92.05s-3.84-667.85,0-671.68"/><rect class="cls-5" x="6194.56" y="1905.07" width="69.62" height="34.88"/><line class="cls-6" x1="6048.87" y1="1935.27" x2="6187.87" y2="1935.27"/><line class="cls-6" x1="6048.87" y1="1909.83" x2="6187.87" y2="1909.83"/><line class="cls-6" x1="6268.7" y1="1935.27" x2="6332.71" y2="1935.27"/><line class="cls-6" x1="6268.7" y1="1909.83" x2="6332.71" y2="1909.83"/><path class="cls-7" d="M6423.7,1582.92l43.59,237.77s11.18,37.59-8.13,45.72-91.72,0-91.72,0l-5.43,11.7h-17.32s-16.66-37.44-8-47.94,36.18-13.55,36.18-13.55l-41.82-210.08Z"/><path class="cls-8" d="M6341.74,1905.14a10.25,10.25,0,0,0,10.17-9.86l10.75-284.71,91.11-40.87s-56.2-133.68-68.12-139.64-172.43-21.1-172.43-21.1-214.13-10.88-226.05,0-106.43,184.58-106.43,184.58,6,12.77,35.76,20.43S6047,1637,6047,1637l-21.43,258.59a10.09,10.09,0,0,0,10.1,10.92l306.09-1.33"/><path class="cls-7" d="M6299.45,1258.47s-6.47,28.29-8.08,48.5-4.85,43.66-32.34,52.55-23.44,6.47-23.44,6.47c-.92,19.49,9.89,30.35,17.65,46.64l-42.36,31.78-61-38.29s36.38-22.35,25.87-46.6-25.87-91.16-25.87-91.16,18.93-35.83,53.3-42.67C6234.09,1219.55,6279.55,1241.25,6299.45,1258.47Z"/><path class="cls-9" d="M6257.35,1285s3.4,11.92,5.1,13.62,6.82,10.22-6.81,10.22"/><path d="M6235.21,1280.75a6,6,0,1,1-6-6A6,6,0,0,1,6235.21,1280.75Z"/><path d="M6286.29,1280.75a6,6,0,1,1-6-6A6,6,0,0,1,6286.29,1280.75Z"/><path class="cls-10" d="M6232.54,1326.83a27,27,0,0,1-6.45-.72,9.59,9.59,0,0,0,3.26-6.55,16.07,16.07,0,0,1,13.61-7.14c.64,0,1.3,0,2,.1,2.87.27,5.52.33,8.08.38,9.61.2,15.41.32,20.08,11.81a3.81,3.81,0,0,0,.29.57c.16.25.37.55.61.88a29.54,29.54,0,0,1-5.72.6,18.9,18.9,0,0,1-9.42-2.28c-3.28-1.85-6-2.71-8.58-2.71-3.07,0-5.3,1.21-7.46,2.38a17.32,17.32,0,0,1-8.09,2.61C6234,1326.81,6233.25,1326.83,6232.54,1326.83Z"/><path d="M6243,1315.83h0c.53,0,1.08,0,1.64.08,3,.29,5.84.35,8.34.4,8.58.17,12.35.25,15.8,7h-.47a15.67,15.67,0,0,1-7.75-1.83c-3.8-2.15-7.06-3.15-10.25-3.15a18.07,18.07,0,0,0-9.08,2.79,14.29,14.29,0,0,1-6.68,2.2c-.67.05-1.33.07-2,.07H6232a12.12,12.12,0,0,0,.68-2.65,12.62,12.62,0,0,1,10.3-4.94m0-6.81a19.48,19.48,0,0,0-17,9.64c.53,5-6.89,7.95-6.89,7.95s4.09,3.63,13.51,3.63c.76,0,1.55,0,2.38-.08,8.12-.5,10.46-5,15.35-5,1.81,0,4,.61,6.9,2.27a22.44,22.44,0,0,0,11.1,2.71,35.52,35.52,0,0,0,13.27-2.76,1.83,1.83,0,0,1-.4,0c-2.3,0-4.9-4-4.9-4-6.88-17-17.21-13-31-14.3a22.61,22.61,0,0,0-2.29-.11Z"/><path class="cls-10" d="M6231.57,1373.82c-10,0-23.85-1.65-33-9.53-11.3-9.73-5.6-24.88-1.44-35.94,1.85-4.93,3.32-8.83,3.13-11.82a3.54,3.54,0,0,0-.16-.85c-.32-1-.5-1.55-.5-1.56a3.42,3.42,0,0,0-.6-1.11,4.48,4.48,0,0,1-1-2.14,3,3,0,0,0-.2-.94c-1.51-4.14-3.5-11.48-4.32-23a3.35,3.35,0,0,0-.35-1.28c-2.86-5.73-5.79-9.11-9-10.32a24.28,24.28,0,0,0-8.62-1.94c-9.75,0-14.87,8.88-15.21,26.39-.45,23,13.35,30.59,19.85,32.91L6175,1367a117.18,117.18,0,0,1-23-34.21,110.15,110.15,0,0,0-5.61-11.21c-6.28-10.77,1.95-23.48,2-23.61a3.41,3.41,0,0,0-.85-4.65c-.19-.14-19.47-14.33-20.45-36.85-1-22.71,22.69-45.15,22.93-45.37a3.64,3.64,0,0,0,.69-.92c.14-.27,14.61-27.47,42.5-33.44a58.67,58.67,0,0,1,12.3-1.24c25,0,50.18,13.56,50.43,13.7a3.43,3.43,0,0,0,1.63.41h.17s.85,0,2.29,0a127.38,127.38,0,0,1,41.72,7.31c20.79,7.56,20.19,31.91,20.16,32.94a3.4,3.4,0,0,0,1.26,2.77c3.34,2.71,4.77,5.46,4.37,8.42-1.17,8.76-16.86,18.63-26.72,23.76l.63-7.15a3.41,3.41,0,0,0-2-3.42c-.76-.33-18.62-8.1-34.72-8.1l-1.59,0c-.63,0-1.29,0-2,0-16.59,0-52.9-5.51-53.27-5.56a2.92,2.92,0,0,0-.51,0,3.39,3.39,0,0,0-3.4,3.56l1,20.78c-3.93,2.21-7,5.93-9.21,11.1a3.36,3.36,0,0,0-.26,1.66c.9,9.31,2.72,25.73,4.78,30.95.36.91.83,2,1.37,3.28,2.77,6.47,7.4,17.3,6.25,25.36a3.09,3.09,0,0,0,0,1l0,.2a6.7,6.7,0,0,0,4.58,5.09c4.13,1.29,12.06,3.46,18.75,3.46,3.81,0,6.72-.68,8.91-2.09a9.59,9.59,0,0,1,5.36-1.42c3.29,0,6.85,1.08,10.29,2.12,1.61.49,3.14,1,4.6,1.3a21.86,21.86,0,0,0,4.84.49c7.91,0,16.24-2.92,21.62-9.19,0,9.06-2.11,20.59-11.51,25.7C6266.21,1368.83,6249.15,1373.82,6231.57,1373.82Z"/><path d="M6205.53,1178.92c24.09,0,48.57,13.15,48.81,13.28a6.91,6.91,0,0,0,3.27.83h.31s.78,0,2.14,0a123.89,123.89,0,0,1,40.55,7.1c18.41,6.69,18,28.7,17.93,29.6a6.79,6.79,0,0,0,2.52,5.56c3.47,2.81,3.23,4.63,3.14,5.32-.72,5.42-10,12.66-19.4,18.18l.07-.82a6.8,6.8,0,0,0-4-6.83c-.78-.35-19.29-8.4-36.09-8.4-.57,0-1.14,0-1.7,0s-1.21,0-1.88,0c-16.34,0-52.39-5.46-52.75-5.52a7.26,7.26,0,0,0-1-.08,6.8,6.8,0,0,0-6.8,7.13l.86,18.8a26.27,26.27,0,0,0-8.86,11.59,6.85,6.85,0,0,0-.54,2.75,15.79,15.79,0,0,0-6.67-5.29,27.39,27.39,0,0,0-9.84-2.17c-8.23,0-18.14,5.16-18.62,29.73-.33,16.79,6.58,26,12.43,30.81a32,32,0,0,0,7.06,4.37l-3.73,24.52a112.94,112.94,0,0,1-17.55-28,113.17,113.17,0,0,0-5.78-11.57c-5.19-8.89,1.86-19.91,1.91-20a6.8,6.8,0,0,0-1.69-9.31c-.18-.13-18.13-13.25-19-34.24s21.63-42.53,21.85-42.74a6.91,6.91,0,0,0,1.4-1.83c.13-.26,13.76-26,40.18-31.68a55.3,55.3,0,0,1,11.58-1.16m-3,144.58c1.5,4.58,2.55,9.4,2,13.28a6.76,6.76,0,0,0,.07,2.33,10.06,10.06,0,0,0,6.9,7.65c4.31,1.35,12.61,3.61,19.76,3.61,4.48,0,8-.86,10.75-2.63a6.3,6.3,0,0,1,3.52-.88c2.78,0,6.1,1,9.3,2,1.67.51,3.24,1,4.82,1.36a25.76,25.76,0,0,0,5.61.57,34.18,34.18,0,0,0,17.58-4.73c-1.26,7.26-4.31,12.24-9.1,14.84-8.74,4.75-25.15,9.53-42.13,9.53-9.43,0-22.42-1.51-30.77-8.7-8.78-7.56-5.41-19-.47-32.16.82-2.19,1.57-4.2,2.16-6m3-151.39a61.83,61.83,0,0,0-13,1.31c-29.87,6.4-44.8,35.2-44.8,35.2s-25.07,23.47-24,48,21.87,39.47,21.87,39.47-9.61,14.4-2.14,27.2a106.93,106.93,0,0,1,5.43,10.87,122.5,122.5,0,0,0,28.19,39.74l.25.24,6.67-43.91s-20.8-3.2-20.27-30.41c.37-18.73,6.05-23,11.81-23a21.24,21.24,0,0,1,7.39,1.72c2.65,1,5.11,4.61,7.13,8.66.86,12.06,3,19.74,4.53,23.94a7.28,7.28,0,0,0,1.77,4h0l.52,1.6c.52,8.14-18.67,34.5-.52,50.13,8.68,7.47,21.72,10.35,35.22,10.35,17,0,34.75-4.58,45.38-10.35,19.06-10.35,12-41.92,12-41.92-2,15-15.56,19-23.77,19a18.28,18.28,0,0,1-4.06-.4c-4.47-1-10.22-3.51-15.67-3.51a13,13,0,0,0-7.2,2,13.31,13.31,0,0,1-7.07,1.55c-6.37,0-14.19-2.19-17.73-3.3a3.3,3.3,0,0,1-2.26-2.5v0c1.52-10.61-5.51-24.5-7.83-30.37-2-5-3.86-22.94-4.55-30,1.95-4.6,5-8.53,9.59-10.32l-1.06-23s36.73,5.59,53.78,5.59q1.11,0,2.1,0c.49,0,1,0,1.48,0,15.56,0,33.35,7.82,33.35,7.82l-1.17,13.14s50.83-22.38,28.42-40.51c0,0,1.07-27.74-22.4-36.27a131.51,131.51,0,0,0-42.88-7.52c-1.59,0-2.46,0-2.46,0s-25.87-14.11-52.07-14.11Z"/><path class="cls-9" d="M6040.79,1448.77s28.34,61.63,8.8,187"/><line class="cls-9" x1="6372.87" y1="1466.13" x2="6362.92" y2="1610.26"/><polyline class="cls-9" points="6140.17 1412.96 6162.2 1459.9 6195.73 1441.7"/><polyline class="cls-9" points="6224.18 1444.41 6250.29 1459.9 6262.3 1419.19"/><path class="cls-11" d="M6209.49,1484a11.49,11.49,0,0,1-11.38-10.5,11.43,11.43,0,0,1,10.46-12.32c.31,0,.63,0,.94,0a11.43,11.43,0,0,1,.92,22.82C6210.11,1484,6209.8,1484,6209.49,1484Z"/><path d="M6209.51,1464.59a8,8,0,0,1,.64,16l-.66,0a8,8,0,0,1-.65-16c.23,0,.45,0,.67,0m0-6.82h0c-.41,0-.82,0-1.22,0a14.83,14.83,0,0,0,1.2,29.62c.4,0,.81,0,1.21,0a14.83,14.83,0,0,0-1.19-29.62Z"/><path class="cls-11" d="M6209.49,1524.93a11.49,11.49,0,0,1-11.38-10.5,11.43,11.43,0,0,1,10.46-12.32c.31,0,.63,0,.94,0a11.43,11.43,0,0,1,.92,22.82C6210.11,1524.92,6209.8,1524.93,6209.49,1524.93Z"/><path d="M6209.51,1505.48a8,8,0,0,1,.64,16l-.66,0a8,8,0,0,1-.65-16l.67,0m0-6.81h0c-.41,0-.82,0-1.22,0a14.83,14.83,0,0,0,1.2,29.62c.4,0,.81,0,1.21,0a14.83,14.83,0,0,0-1.19-29.61Z"/><path class="cls-7" d="M5927.32,1610.05s11.39,241.52,21.64,257.46,299.68,0,299.68,0,23.06,12.13,36.61,7.09,18.34-5.83,18.34-5.83l6.65,9.34,8.39-.86-4.47-22.48h4.47l4.89,23.34h9.85l-3-23.83h3l3.45,23.83h7.87l3-37.62s-12.66-18.34-16.6-18.34-15.25,2.17-22.38-.68c-10.49-4.21-10.26-1.17-17.16,3.26s-50.23,6.4-50.23,6.4L6040.79,1805l8.71-169.89S6009.27,1602.2,5927.32,1610.05Z"/><polygon class="cls-12" points="5855.68 2860.21 5846.15 2860.21 5830.02 1882.83 5871.8 1882.83 5855.68 2860.21"/><rect class="cls-12" x="5777.81" y="1873.96" width="922.5" height="17.74" rx="8.87"/><path class="cls-13" d="M6271,1874h292.7a13.74,13.74,0,0,0,13.75-13.75h-320.2A13.75,13.75,0,0,0,6271,1874Z"/><path class="cls-14" d="M6308.67,1874h321.89a13.74,13.74,0,0,0,13.74-13.75H6324.85C6322.19,1866.28,6319,1874,6308.67,1874Z"/><path class="cls-15" d="M6709.24,1680.17H6425.19a23.31,23.31,0,0,0-21,13.23l-80.05,166.81H6644.3l77.12-160.69A13.51,13.51,0,0,0,6709.24,1680.17Z"/><path class="cls-11" d="M667.51,2588.94h0q-3,0-6-.06c-47.08-.8-131.06-12.74-177-23-56.19-12.48-136.16-36.06-198-77.5-72.79-48.77-102.36-109.86-87.89-181.57,7.55-37.43,25.57-65.8,55.1-86.76,26.17-18.57,58.94-29.79,90.64-40.64,42.11-14.41,85.66-29.32,116.49-61.68,38.14-40,49.63-90.89,60.74-140.07,7.81-34.55,15.18-67.18,31.06-96.38,17.85-32.83,44.52-56.2,81.53-71.42,35-14.41,68.09-21.71,98.28-21.71,35,0,65.84,9.65,91.71,28.7,23.85,17.56,42.5,42.27,55.41,73.43,19.28,46.54,23.82,103.41,12.8,160.14-11.5,59.15-39.5,113.4-78.84,152.75-32,32-85,45.89-136.2,59.28-60.7,15.86-123.46,32.27-149,79-21,38.27-22.4,73.21-4.25,103.85,14.7,24.82,41.94,45.93,78.77,61,32.62,13.38,71.3,21.06,106.11,21.06h0a205.79,205.79,0,0,0,29.23-2,109.43,109.43,0,0,1,15.69-1.23c14.83,0,25.28,4,29.44,11.18,2.81,4.85,2.48,10.78-.92,16.67C771.8,2570.41,732.16,2588.94,667.51,2588.94Z"/><path d="M732.47,1791.6c183.91,0,213.65,274.19,78.67,409.21-69.35,69.38-237.81,51.39-285.82,139-67.81,123.78,79.22,191,183.64,191a209.48,209.48,0,0,0,29.71-2,105.83,105.83,0,0,1,15.21-1.19c56.1,0,27.9,57.91-86.38,57.91-2,0-3.93,0-5.93-.05-47.49-.82-131.13-12.83-176.32-22.87-114.86-25.52-315.61-94.8-283.28-255.08,27.31-135.38,182.69-104.83,261.36-187.41,91.25-95.78,31.79-249.32,172.16-307.06,36-14.83,68.37-21.46,97-21.46m0-6.81c-30.63,0-64.14,7.39-99.57,22-20.16,8.29-36.9,18.64-51.18,31.64a154.73,154.73,0,0,0-32.05,41.3c-16.11,29.61-23.88,64-31.39,97.26-11,48.73-22.39,99.11-59.88,138.47-30.26,31.75-73.41,46.53-115.14,60.81-31.92,10.93-64.93,22.23-91.5,41.09A135.49,135.49,0,0,0,216.58,2253c-10.2,15.31-17.16,32.69-21.29,53.14-7.89,39.11-2.78,75.61,15.17,108.5,15.36,28.13,40.31,53.9,74.16,76.58,62.27,41.73,142.67,65.45,199.15,78,46.1,10.24,130.41,22.22,177.68,23,2,0,4.06.05,6,.05,44.59,0,72.8-8.53,88.61-15.69,20.66-9.35,32.51-21.8,32.51-34.15,0-10.49-9.12-21.69-34.74-21.69a114.69,114.69,0,0,0-16.18,1.25,200.47,200.47,0,0,1-28.74,2c-34.39,0-72.61-7.58-104.84-20.81-36.14-14.83-62.81-35.45-77.14-59.62-17.49-29.53-16-63.33,4.31-100.48,24.88-45.41,84.16-60.9,146.92-77.31,51.65-13.5,105.07-27.47,137.75-60.16a280.08,280.08,0,0,0,51.64-71.92,317.08,317.08,0,0,0,28.13-82.59c11.15-57.38,6.54-114.94-13-162.1-13.15-31.74-32.17-56.93-56.53-74.86-26.47-19.49-58-29.37-93.73-29.37Z"/><path class="cls-9" d="M708.6,2185.51s110.58-16.73,132.72-154.67-52.62-218.49-153.18-199.5"/><path class="cls-16" d="M323.93,1529.45s-72.63,8.16-103.44,132.82S123.05,1824.9,93.68,1875.05s9.31,79.52,70.21,53.73,172-136.84,199.89-199.89S323.93,1529.45,323.93,1529.45Z"/><path class="cls-13" d="M171.88,1980.41l-61.61,1.94a7.9,7.9,0,0,1-8.13-7.64l-3.78-120.43a7.88,7.88,0,0,1,7.63-8.13l61.61-1.94a7.89,7.89,0,0,1,8.13,7.64l3.79,120.43A7.9,7.9,0,0,1,171.88,1980.41Z"/><path class="cls-17" d="M549.33,2012q-96.5-8.51-193.47-8.92c-6.48,0-13.75.3-18.17,5s-4.23,12.09-6.75,18.08c-5.5,13.12-21.9,16.85-35.87,19.53a451.62,451.62,0,0,0-207,99.48c-14,11.91-27.89,26-31.11,44-3.13,17.65,4.66,35.25,12.74,51.25a877,877,0,0,0,230.5,285.47c36.19-9.83,63.25-25.5,90.24-47.34-39.83-72.39-94-141.7-133.83-214.1,42.46-18.43,104.32-50,150.55-52.42C485.08,2208,562.6,2217,629.61,2177c9.54-5.69,19.32-12.17,24.4-22.05,4.5-8.76,4.69-19,4.76-28.88.24-32.07-1.72-68.48-26.17-89.24Z"/><path class="cls-18" d="M198.87,1890.09c-6.94-3.78-14.92-5.06-22.73-6.28l-.66,14.37a5.76,5.76,0,0,1-.92,3.45c-1,1.16-2.65,1.36-4.16,1.47a374.26,374.26,0,0,1-44.56.49c-1.45-.07-3.06-.11-4.18.82a4.81,4.81,0,0,0-1.18,1.63,12,12,0,0,0,13.75,16.9,10.1,10.1,0,0,0,12.39,15.41c-3.92,4.22-1.23,11.82,4,14.29s11.48.94,16.47-1.91c-2.58,4.75.71,11,5.51,13.47s10.51,2.25,15.9,1.87c7.31-.52,14.7-1.19,21.62-3.59s13.43-6.74,17.07-13.1c6.34-11.07,3.05-26.92-3.8-37.06-3.09-4.58-7.13-6.14-11.12-9.5C207.35,1898.71,204.75,1893.29,198.87,1890.09Z"/><path class="cls-16" d="M711.41,2032.12c-8.94-112.72-25.13-224.76-46.45-335.81-8.83-46-19.72-93.92-50.19-129.51-28.53-33.34-70.87-51.64-113.17-63.29-27.17-7.48-149.94,21-177.67,25.94-64.08,11.52-18.7,235.85-6.41,299.78,8.85,46,14.06,91.15,11.3,138-2.16,36.54-8.08,60.39,33.88,65.56,34.48,4.26,74.86-.67,110.21-.67Z"/><path class="cls-18" d="M328.67,1454.38l13.7,1.49c-.13,20.32,6.19,42.52,23.23,53.57,10.22,6.63,22.91,8.36,33.56,14.29,7.53,4.2,14,12.28,14.94,20.35,1.16,10.28,10.33,17.75,20.67,17.87,12.09.14,26.87-2.56,40-6.25A30.76,30.76,0,0,0,496,1517.55c-16.19-56.16-22.71-105.41-22.26-165.3,0-1.79-.05-3.78-1.28-5.09s-3.45-1.51-5.36-1.52l-117.4-1.07c-1.21,18.43-.33,36.6-7.12,53.89-2,5.06-11.6,29.51-20,43.8A8.07,8.07,0,0,0,328.67,1454.38Z"/><path class="cls-16" d="M445.17,1688.8c-15.77,50.35-16.87,103.91-19.39,156.61-.4,8.35-.93,17-5.06,24.32-7.12,12.5-22.53,17.2-36.54,20.47a865.84,865.84,0,0,1-165.48,22c-16.61.6-24.47,21.28-12,32.27l.27.23c9.05,7.79,21,11.16,32.5,14.3,91.15,24.9,184.51,50,278.72,42.76,9.7-.74,19.66-1.91,28.24-6.5,11.43-6.12,19-17.47,25.55-28.62a469.11,469.11,0,0,0,62.69-278.56c-2.44-26.9-7.47-54.27-21.31-77.46C554.33,1511.69,466.27,1621.38,445.17,1688.8Z"/><path class="cls-17" d="M726.92,2148c-6.4,18.79-15.09,37.63-30.32,50.36-12.73,10.63-29,16.09-45.27,19.37-60.54,12.24-126.25-4.19-173.91-43.48q21.21,204.54,33,409.9a327.49,327.49,0,0,1-106.3,6.29c-55.68-149.5-71.34-310.34-102.92-466.71-4.81-23.77-8.82-41.46-9.44-65.7-1.28-50.42,40.16-80.91,63.4-87.84,29.05-8.66,320.65,28.35,356.37,59.09C751.25,2063.46,740.94,2106.89,726.92,2148Z"/><path class="cls-18" d="M108.09,1864.85c4.79-.87,10.84-1.22,13.36,3s-1.14,10-5.75,12-9.86,1.78-14.7,3.15c3.65,1.22,7.62.35,11.47.27s8.3,1.12,9.81,4.66c1.34,3.12-.33,6.92-3.06,8.94s-6.26,2.62-9.65,2.83-6.84.1-10.13,1c1.23,2,4.06,2.17,6.38,1.8s4.85-1,6.91.14c3.49,1.93,2.65,7.69-.58,10s-7.55,2.28-11.54,2.11c3.11,2.45,6,5.49,7.06,9.31s-.21,8.5-3.72,10.35a11.15,11.15,0,0,1-6.27.84c-4.32-.43-8.81-2.11-11.24-5.71s-1.86-9.34,2-11.39c-3.4-.14-5.63-4.3-4.56-7.52s4.52-5.21,7.91-5.46a34.93,34.93,0,0,1-8.94-6.57c-1.92-2-3.7-4.86-2.4-7.27,1.48-2.74,5.63-2.51,7.92-4.61-8-1-5.61-12.9-1.22-16.56C92.11,1865.91,102.08,1866,108.09,1864.85Z"/><path class="cls-19" d="M478.38,1517.22a76.38,76.38,0,0,1-19.11-2.73c-10.55-2.73-18-6.31-23.4-11.26-5.6-5.13-8.81-12.11-8.69-18.54a60.8,60.8,0,0,0,7.92.57c9.55,0,16.26-3,19.92-9,1.57-2.55,1.92-9.68-1.56-15.89-2.9-5.19-9.37-11.37-23.76-11.37a63.33,63.33,0,0,0-9.19.72,4.37,4.37,0,0,1-.72.06,4.84,4.84,0,0,1-3.53-1.57,5,5,0,0,1-1.33-3.78l2.71-37.21a20,20,0,0,0-5.33-15.27,20.73,20.73,0,0,0-15.13-6.59,21.14,21.14,0,0,0-6.38,1l-.25.08a28.27,28.27,0,0,1-8.17,1.25c-3.35,0-9.52-.71-13.12-5.45-2.81-3.69-1.37-10.08,1.78-12.73a3.41,3.41,0,0,0-3.14-5.88c-7.78,2.24-16.15,4.31-24.7,4.31l-1.33,0c-2.7-.07-4.57-.61-5.13-1.49-1.37-2.12,1.42-8.69,3.46-13.48,3.17-7.48,6.45-15.2,3.43-21-1.53-3-4.43-4.91-8.62-5.81-19.08-4.14-26.87-16-26-25.29a3.64,3.64,0,0,0,0-.66,18.54,18.54,0,0,1,5.24-13.82c5.49-6,14.45-9.3,25.23-9.3,1.31,0,2.67,0,4,.14,25.15,1.74,34.77,16.84,35.17,17.48a3.41,3.41,0,0,0,2.28,1.56,3.36,3.36,0,0,0,.63.06,3.43,3.43,0,0,0,2.06-.69c3.25-2.47,7.71-3.58,14.45-3.58,1,0,1.94,0,2.9.06,7.64.27,16.24,1.23,22,6.34a14.26,14.26,0,0,1,4.6,10.72,8.35,8.35,0,0,1-3,6.54,3.4,3.4,0,0,0,2.1,6.08,3.5,3.5,0,0,0,1.37-.28c8.87-3.89,20.62-8.39,32.8-8.8l1.47,0c10,0,18.25,3.33,22.63,9.12a15.52,15.52,0,0,1,2.26,13.18c-.56,2-2.06,5.55-5.83,7a3.4,3.4,0,0,0,1.24,6.57,3.51,3.51,0,0,0,.95-.13,32.64,32.64,0,0,1,9.16-1.27c11.86,0,22.59,5.88,27.32,15,3.18,6.1,3.12,14.17-.15,21.06-2.87,6-7.72,10.15-13.33,11.32a3.4,3.4,0,0,0-.08,6.65c13.07,3,34.34,13.42,31.23,33.37a28.49,28.49,0,0,1-7.85,15.11c-9.57,10-23.08,14.09-36.15,18a3.41,3.41,0,0,0,1,6.67H495l.87,0a14.57,14.57,0,0,1,10.73,5.24,18.66,18.66,0,0,1,4.88,14.11c-1.14,10.93-10.72,18.73-19.7,21.62A44,44,0,0,1,478.38,1517.22Z"/><path d="M339.44,1280.47c1.24,0,2.52,0,3.81.14,22.92,1.58,31.91,14.94,32.5,15.86a6.7,6.7,0,0,0,5.78,3.3,6.86,6.86,0,0,0,4.16-1.44c2.62-2,6.44-2.88,12.39-2.88.85,0,1.76,0,2.78,0,7,.25,14.91,1.1,19.9,5.49a10.88,10.88,0,0,1,3.45,8.07,5.14,5.14,0,0,1-1.67,4,6.81,6.81,0,0,0,4.2,12.17,6.72,6.72,0,0,0,2.73-.57c8.6-3.76,19.95-8.13,31.55-8.52l1.36,0c4.22,0,14.61.76,19.91,7.76a12.18,12.18,0,0,1,1.7,10.21c-.38,1.38-1.4,3.84-3.8,4.79a6.81,6.81,0,0,0,2.49,13.15,6.9,6.9,0,0,0,1.89-.27,29.71,29.71,0,0,1,8.21-1.14c10.61,0,20.16,5.16,24.31,13.15,2.7,5.17,2.61,12.08-.21,18-2.4,5.06-6.39,8.5-10.95,9.44a6.81,6.81,0,0,0-.14,13.31c11.91,2.74,31.35,12,28.63,29.52a25.14,25.14,0,0,1-7,13.29c-8.94,9.4-22,13.31-34.65,17.09a6.81,6.81,0,0,0,1.95,13.34l.49,0c.21,0,.42,0,.63,0h0c3.91,0,6.82,2.57,8.2,4.11a15.44,15.44,0,0,1,4,11.47c-.84,8-8,15.72-17.36,18.74a40.71,40.71,0,0,1-12.37,1.8,73,73,0,0,1-18.26-2.63c-10-2.59-17-5.91-21.95-10.47a23.29,23.29,0,0,1-7.23-12.21c1.44.1,2.83.16,4.16.16,10.82,0,18.5-3.56,22.82-10.59,2.35-3.81,2.45-12.29-1.48-19.33-3.35-6-10.7-13.12-26.74-13.12a66.19,66.19,0,0,0-9.69.77h-.22a1.46,1.46,0,0,1-1-.48,1.54,1.54,0,0,1-.42-1.21L421,1407.5a23.45,23.45,0,0,0-6.23-17.83,24.18,24.18,0,0,0-17.63-7.67,24.59,24.59,0,0,0-7.4,1.15l-.23.07a24.62,24.62,0,0,1-7.17,1.1c-2.72,0-7.7-.53-10.41-4.1-1.64-2.16-.67-6.44,1.26-8.06A6.81,6.81,0,0,0,367,1360.4c-7.54,2.17-15.63,4.17-23.76,4.17H342a11.74,11.74,0,0,1-2.14-.22c.26-2.34,2.42-7.43,3.52-10,3.48-8.2,7.08-16.68,3.32-23.93-1.39-2.68-4.41-6.17-10.92-7.58-17.06-3.7-24.06-13.82-23.36-21.65a6.84,6.84,0,0,0,0-1.28c-.31-3.71,1.32-7.9,4.36-11.21,4.84-5.29,12.91-8.2,22.71-8.2m0-6.81c-24.36,0-34.87,15.28-33.85,26.87h0c-.94,10.38,7.19,24.27,28.7,28.92,22.6,4.9-18.09,41.25,7.49,41.91l1.42,0c8.69,0,17.23-2,25.64-4.44-4.56,3.83-6.23,12.2-2.29,17.39,3.65,4.81,9.66,6.79,15.83,6.79a31.49,31.49,0,0,0,9.19-1.4l.26-.08a17.7,17.7,0,0,1,5.35-.84,17,17,0,0,1,17.07,18.2q-1.37,18.6-2.72,37.21a8.29,8.29,0,0,0,9.48,8.91,60.06,60.06,0,0,1,8.69-.69c24.84,0,23.87,19.71,22.42,22.07-3.49,5.67-10.08,7.34-17,7.34a64.85,64.85,0,0,1-10.9-1.06c-1.88,9.1,2.51,18.68,9.37,25s15.85,9.71,24.85,12a80.43,80.43,0,0,0,20,2.85,47.19,47.19,0,0,0,14.45-2.13c11.07-3.56,20.84-12.94,22.05-24.51,1.17-11.19-7.9-23.1-19-23.11-.37,0-.74,0-1.12,0,13.58-4.07,27.54-8.32,37.63-18.92a32,32,0,0,0,8.76-16.94c3.14-20.14-15.85-33.07-33.83-37.21,15.3-3.17,23-23.42,15.81-37.28-5.64-10.85-18-16.81-30.35-16.81a36.23,36.23,0,0,0-10.1,1.41c9.32-3.66,11.09-17.47,5.05-25.45-5.73-7.56-15.8-10.46-25.35-10.46l-1.59,0c-11.81.4-23.22,4.35-34.05,9.09,6.75-5.3,5-16.83-1.48-22.5s-15.59-6.88-24.16-7.19c-1,0-2,0-3,0-5.89,0-11.9.76-16.52,4.27,0,0-10.43-17.2-37.84-19.1-1.47-.1-2.89-.15-4.28-.15Z"/><path class="cls-9" d="M375.24,1341.83a17.54,17.54,0,0,0,21.55-18.24"/><path class="cls-9" d="M429.08,1361.2c1.28-4.52,6.14-7.43,10.84-7.41s9.12,2.52,12.45,5.84,5.73,7.44,8.09,11.51"/><path class="cls-9" d="M468.71,1404.56c2.79,11.08-4.13,23.72-15,27.35"/><path class="cls-9" d="M494.44,1427.19a13.51,13.51,0,0,0-9.77,19.64"/><path class="cls-20" d="M354.29,1472.29l30.65-3.4s3.41,22.13-5.1,27.24S356,1489.32,354.29,1472.29Z"/><ellipse cx="367.06" cy="1411.84" rx="7.66" ry="9.37"/><path class="cls-9" d="M401.65,1570c3.26,9,11.81,15.5,21.12,17.8s19.22.85,28.24-2.4,17.29-8.24,25.5-13.19"/><rect class="cls-21" x="5272.1" y="1904.64" width="17.18" height="784.57"/><path class="cls-22" d="M5388.78,1487.31c-14.7,0-24.46-3.2-27.5-9s-.14-15.27,8.32-27.49c16.38-23.62,16.25-61.67-.38-113.09a463,463,0,0,0-27.83-66.41,52,52,0,0,1,19.23-3.74c15.31,0,37.46,7.27,56,41.88,31.45,58.6-3.81,161.47-9.22,176.42A132.31,132.31,0,0,1,5388.78,1487.31Z"/><path d="M5360.62,1271a46.44,46.44,0,0,1,25.07,7.43c10.48,6.61,19.89,17.6,28,32.65,17.1,31.85,13.57,77.55,7.6,110.29a418.39,418.39,0,0,1-16.32,61.44,128.94,128.94,0,0,1-16.15,1.11c-13.17,0-22.09-2.62-24.48-7.18s.51-13,8.1-24c17-24.54,17-63.6.06-116.08a460.42,460.42,0,0,0-26.27-63.47,48.83,48.83,0,0,1,14.43-2.22m0-6.81a53.08,53.08,0,0,0-23.92,5.55s68.06,124.4,30.11,179.15c-24.69,35.62,1,41.84,22,41.84a133.75,133.75,0,0,0,21.16-1.79s44.67-116,9.72-181.08c-19.11-35.6-42.11-43.67-59-43.67Z"/><path class="cls-23" d="M5348,1860.18s-33.79,76.4-28.1,161.54,29.18,239.89,29.18,239.89L5404.85,2663h44.88s6.78-295.34-.31-401.43l4.91-401.43Z"/><path class="cls-24" d="M5294.52,1515.06s-31.79,92.7,76.14,262.71c0,0-209.63,38.63-234.93,45.43s-26.55,34.36-26.55,34.36H5435Z"/><path class="cls-23" d="M5348,1860.18h251.49s29.34,85.57,13.22,197.81S5556.49,2307,5556.49,2307s24.12,170.2-13.09,356h-50.34l-43.64-401.43-18.57-277.72S5326,1990.89,5348,1860.18Z"/><path class="cls-25" d="M5599.52,1860.18H5348c-.11.65-.19,1.29-.3,1.94h63.45s162.94-.68,199.73,47C5605.77,1878.41,5599.52,1860.18,5599.52,1860.18Z"/><path class="cls-26" d="M5446.2,1415.67s-217.57,28.81-133.35,152.66c24.39,35.87,21.28,64.56,37.81,133.77,21.68,90.74-3.17,158.08-3.17,158.08H5599c-57.09-51.33,72.68-334.17,60.61-365.63C5618.29,1386.94,5446.2,1415.67,5446.2,1415.67Z"/><path class="cls-24" d="M5595.16,1444.5c-12.6.43-17.72.42-26.79,9.17-14.52,14-18.22,38.66-6.06,81.22,16.41,57.45,98.07,234.06,98.07,234.06-93.51,10.78-179.09,30.6-273.57,45.58-88.7,6.82-97.53,45.65-97.53,45.65h91.9s354.7,12.91,371.12-27.87C5767.57,1794.36,5705.79,1440.74,5595.16,1444.5Z"/><path class="cls-24" d="M5336.7,1269.72s-10.22,86.8,31.91,106.26,41,42.55,41,42.55-29.6,69.21,14,76.14,105-95.75,105-95.75-38.17,12.82-41.34-21,9.85-119.68-9-142.64S5344.09,1189.3,5336.7,1269.72Z"/><path class="cls-22" d="M5494.81,1520.93a18.57,18.57,0,0,1-5.13-.84c-19.53-5.68-31.46-19.36-36.47-41.8-4.61-20.6-3.35-48.18,3.84-84.3,13.58-68.26-23.19-134.11-24.76-136.87a3.41,3.41,0,0,0-3-1.73,3.62,3.62,0,0,0-1.07.17c-.17.06-17.58,5.73-46.73,11a69.78,69.78,0,0,1-12.35,1.08h0a82.38,82.38,0,0,1-19.05-2.32,21.36,21.36,0,0,1-15-12.82,21,21,0,0,1,1.73-19.32c8.37-13.26,23.14-23.2,43.9-29.54a161.62,161.62,0,0,1,46.53-7c24.73,0,46.28,6,62.33,17.25,18.46,13,28.77,32.27,30.62,57.32,4.74,64.1,35.62,129.07,44.77,147.1-49.66,2.74-54.11,42.56-57.4,71.91C5505.51,1509.28,5503.75,1520.93,5494.81,1520.93Z"/><path d="M5427.31,1200.08c24,0,44.9,5.75,60.37,16.63,17.59,12.37,27.41,30.8,29.18,54.79,2.94,39.66,15.76,79.24,26,105.45,6.52,16.7,12.76,30.08,16.87,38.42-47.74,5.35-52.35,46.59-55.47,74.51-1,8.7-1.89,16.91-3.85,22.24s-4.07,5.41-5.59,5.41a15.32,15.32,0,0,1-4.18-.71c-18.23-5.3-29.38-18.15-34.1-39.27-4.5-20.13-3.24-47.25,3.86-82.9,7.25-36.42,0-72.32-7.31-96-7.9-25.57-17.43-42.48-17.83-43.19a6.77,6.77,0,0,0-8.05-3.1c-.17.05-17.41,5.66-46.28,10.89a65.73,65.73,0,0,1-11.74,1,78.18,78.18,0,0,1-18.25-2.24,17.91,17.91,0,0,1-12.62-10.78,17.62,17.62,0,0,1,1.45-16.22c7.92-12.55,22.05-22,42-28.1a157.86,157.86,0,0,1,45.53-6.84m0-6.81a164.32,164.32,0,0,0-47.52,7.14c-25.29,7.72-38.71,19.75-45.79,31a24.74,24.74,0,0,0,15.34,37.27,85.66,85.66,0,0,0,19.84,2.42,72.92,72.92,0,0,0,13-1.14c29.77-5.4,47.19-11.13,47.19-11.13s37.87,66.72,24.38,134.52-8.39,117.41,35,130a22,22,0,0,0,6.08,1c32.45,0-8.28-102.74,75.76-102.74,0,0-41.35-75.46-46.91-150.61-4.15-56-49.24-77.72-96.35-77.72Z"/><path class="cls-27" d="M5130,1884.16a3.41,3.41,0,0,1-3.41-3.41v-21.36A3.41,3.41,0,0,1,5130,1856H5504.4a3.41,3.41,0,0,1,3.41,3.41v4.18a20.62,20.62,0,0,1-20.59,20.59Z"/><path d="M5504.4,1859.39v4.18a17.18,17.18,0,0,1-17.18,17.18H5130v-21.36H5504.4m0-6.81H5130a6.8,6.8,0,0,0-6.81,6.81v21.36a6.8,6.8,0,0,0,6.81,6.81h357.24a24,24,0,0,0,24-24v-4.18a6.81,6.81,0,0,0-6.82-6.81Z"/><path class="cls-11" d="M5096.37,1884.81c-10.63,0-21.31-8.28-24.33-18.86l-53.5-187.62c-1.56-5.47-.75-10.87,2.22-14.8s7.42-5.93,12.77-5.93H5336c10.62,0,21.31,8.28,24.33,18.86l53.5,187.62c1.56,5.47.75,10.87-2.22,14.8s-7.42,5.93-12.77,5.93Z"/><path d="M5336,1661c9.05,0,18.47,7.33,21.05,16.38l53.5,187.63c2.58,9-2.66,16.38-11.71,16.38H5096.37c-9.05,0-18.47-7.33-21.05-16.38l-53.5-187.63c-2.58-9.05,2.66-16.38,11.71-16.38H5336m0-6.81H5033.53a19.06,19.06,0,0,0-15.49,7.28c-3.62,4.79-4.63,11.27-2.77,17.78l53.5,187.63c3.41,12,15.53,21.32,27.6,21.32h302.44a19.06,19.06,0,0,0,15.49-7.28c3.62-4.79,4.63-11.27,2.77-17.78l-53.5-187.63c-3.41-12-15.53-21.32-27.6-21.32Z"/><rect class="cls-21" x="5026.1" y="1876.9" width="534.74" height="41.67" rx="20.83"/><path class="cls-9" d="M5364.25,1321.33s-1.71,13.62-8.52,17a15.32,15.32,0,0,0,12.92,8.2"/><path class="cls-28" d="M5371.78,1358.8s23.12-1.71,33.34-5.12c0,0,0,15.33-10.22,17S5375.9,1365.62,5371.78,1358.8Z"/><path d="M5396.6,1315.37a6,6,0,1,1-6-6A6,6,0,0,1,5396.6,1315.37Z"/><path d="M5354,1317.07a6,6,0,1,1-6-6A6,6,0,0,1,5354,1317.07Z"/><path class="cls-29" d="M1304.72,1876.83l-59.27-145.27s-131.08-10.58-169.51,17.17c0,0-63.82,84.58-63.82,165.59s63.82,325.24,63.82,325.24,7.52,234.56,14.77,287.76c4.2,30.77,6.63,70.44,7.94,98.42a62.46,62.46,0,0,0,32.06,51.68l3.42,1.91a21.21,21.21,0,0,0,27-5.46h0a21.28,21.28,0,0,0,4-8.73L1136.1,2618s35.62-378.44,35.62-447.36,10.88-226.1,10.88-226.1l114.86,191s-51.73,78.59-68.66,149.92-32.9,158.39-32.9,158.39l-5.56,16.14a51.85,51.85,0,0,0,1.35,37.32L1205,2528.4a16.17,16.17,0,0,0,31-4.86l8.13-86.9S1393,2156.13,1393,2136.79,1304.72,1876.83,1304.72,1876.83Z"/><path class="cls-29" d="M1289.37,1487.1s8.89,24.3,5.23,57.18-14,170.82-14,170.82,56.26,175.38,56.26,214.84-23.4,37.27-23.4,37.27-18.08-30-12.7-51.15-51.76-160.73-55.34-184.5.08-142.19,8.85-175.79S1285,1487.1,1289.37,1487.1Z"/><path class="cls-30" d="M935.44,1518.57s-4.66,25.74,24.24,36,22.84-48,9.79-48S935.44,1518.57,935.44,1518.57Z"/><path class="cls-31" d="M999.7,1439.63c-1.22-17.1,13.76-33.63,30.89-34.1a33.12,33.12,0,0,1,29.17-54c-15.71-4.91-26.84-21.62-25.32-38s15.55-30.76,31.9-32.69c-17.38-6.77-21-31.67-11.71-47.87s26.67-25.63,43.21-34.24c13.78-7.17,27.86-14.44,43.2-16.88s32.42.76,43.14,12c8.91-5.71,18.09-11.54,28.47-13.64s22.36.34,28.85,8.7,4.36,22.94-5.48,26.85a50.47,50.47,0,0,1-3.8,85.48,28.82,28.82,0,0,1-19,51.57h0c18.52,2.52,29.75,22.11,22.12,39.17l-.18.4c9.63-5.6,23.25-2.89,30,6s5.73,22.72-2.24,30.51c-10.42,10.18-27.22,8.39-41.57,5.89-34.9-6.06-71.27-17.6-106.48-20.41C1076.89,1411.23,1035.76,1429.64,999.7,1439.63Z"/><path class="cls-32" d="M1245.45,1731.56c-55,14.88-113.56,11.27-169.51,17.17,10-65-9.3-133.91-51.59-184.25-13.44,16.1-47.78-38.58-67.42-45.91S932.18,1529.39,937,1513c11-37.69,37.09-71,72.18-88.66,34.39-17.28,63.93-11.79,100.24-11,26.59.62,49,3.86,76.49,4.48,18.33.41,25.16.56,35.58,2.38a122,122,0,0,1,57.79,26.49c6.94,5.85,13.22,12.51,16.63,19.42,10.62,21.51,22.63,44.52,22.63,44.52l-58.07,103S1237.4,1670.38,1245.45,1731.56Z"/><line class="cls-9" x1="1275.87" y1="1491.49" x2="1267.35" y2="1544.28"/><path class="cls-29" d="M1208.56,1268.56a17.21,17.21,0,0,1-33.57-4,20.19,20.19,0,0,1-20.33,13.54c-8.74-.75-15.52-7.71-17.71-15.92-3.72,17.32-24.53,31.48-39.29,17.93a23.59,23.59,0,0,1-2.65-3c-.69,24.87,15.36,44.44,25.91,69.62,8.83,21.1.64,35.4-6.39,55.31-20.25,57.33,74.88,71,73,25.84-.82-19.85-25.8-34-22.9-53.63,1.73-11.76,12.8-19.38,21.71-27.25,20.64-18.23,33.56-46.16,30.62-73.35A11.15,11.15,0,0,1,1208.56,1268.56Z"/><path class="cls-27" d="M1179.53,1668.87a8.39,8.39,0,0,1-6.55-3,8.59,8.59,0,0,1-1.63-7.19l21.49-104.64a11.27,11.27,0,0,1,10.67-8.81h90.83a8.35,8.35,0,0,1,6.54,3,8.56,8.56,0,0,1,1.63,7.19L1281,1660.06a11.29,11.29,0,0,1-10.68,8.81Z"/><path d="M1294.34,1548.64a4.82,4.82,0,0,1,4.84,6.09l-21.49,104.65a7.87,7.87,0,0,1-7.34,6.09h-90.82a4.82,4.82,0,0,1-4.84-6.09l21.49-104.65a7.86,7.86,0,0,1,7.33-6.09h90.83m0-6.81h-90.83a14.6,14.6,0,0,0-14,11.53L1168,1658a11.93,11.93,0,0,0,2.33,10,11.74,11.74,0,0,0,9.18,4.25h90.82a14.59,14.59,0,0,0,14-11.53l21.49-104.65a11.93,11.93,0,0,0-2.33-10,11.75,11.75,0,0,0-9.18-4.25Z"/><line class="cls-9" x1="1212.86" y1="1545.98" x2="1187.32" y2="1668.59"/><path class="cls-29" d="M1223.51,1619.82c5.59-5.59,0-10.26,0-10.26-12.12,6.53-43.66,8.12-43.66,8.12l3.1-15.11s-1.21-.44-13,3.73c-12.3,4.34-14,22.76-14.17,27.11C1117.23,1646.33,994,1686.7,994,1686.7c6.89-22,30.34-122.22,30.34-122.22-20.19-28.25-67.42-45.91-67.42-45.91s-77.18,271.49,0,253.58,205.72-108.87,205.72-108.87,38.48-.11,51.07-5.71,9.32-11.79,9.32-11.79c10.72-2.46,3-10.11,3-10.11C1233.53,1628.13,1223.51,1619.82,1223.51,1619.82Z"/><path class="cls-33" d="M1245.45,1731.56s77.4,151.32,140.28,360.49c0,0-82.48,2.42-125.27,15.72s-217.82,35.06-217.82,35.06-49.86-190.52-37.77-251.83,71.74-147.11,71.74-147.11S1179.54,1744.68,1245.45,1731.56Z"/><path class="cls-9" d="M1178.8,1302.47s6.82,23.84,0,30.65-13.62,0-13.62,0"/><circle cx="1143.04" cy="1304.17" r="5.11"/><circle cx="1195.83" cy="1304.17" r="5.11"/><path class="cls-9" d="M1146.45,1345s8.51,8.52,25.54,1.71"/><circle class="cls-34" cx="1104.73" cy="1328.86" r="11.07" transform="translate(-383.94 2206.47) rotate(-80.78)"/><path class="cls-35" d="M4260.05,2740.86c-.14-4.49-3.17-116.72,23.36-255.26,15.64-81.66,38.38-157.41,67.6-225.16,37-85.69,84.47-158.84,141.21-217.41,106.21-109.62,244.33-168.91,411-176.52a35.72,35.72,0,0,1,37.25,35.74h0a35.83,35.83,0,0,1-34.29,35.73c-147.79,6.9-269.64,58.89-362.58,154.82-50.69,52.32-93.39,118.25-126.91,196-27.16,63-48.36,133.73-63,210.28-25.06,130.84-22.15,240.79-22.12,241.81Z"/><path class="cls-36" d="M4141.25,1468.1s14.26-4.71,15-19.45,1.48-30.75,4.79-35.87-13.63-4.86-15.15,3.26-9.58,20.91-9.58,20.91l-46.76-27.25s6,46.35,10.29,56.09S4137.44,1474,4141.25,1468.1Z"/><path class="cls-37" d="M4282.75,1421.66c-40.1,40.1-58.68,113.46-81.31,145a117.17,117.17,0,0,0-10.76,18.63q-15.81-50.36-35.59-99.34c-2.91-7.19-6.59-15.08-13.84-17.85s-15.05.57-22.54,2.29-17.33.54-19.93-6.69q5.46,92.57,10.94,185.14c1.52,25.74,5.32,55.5,27.26,69.06,13.6,8.4,31.21,8,46.3,2.67,2.64-.93,5.48-2,8.36-3.15,8.95-1.4,18-6.23,25.82-11.28A444.92,444.92,0,0,0,4331,1599.79c11.77-15.73,22.82-33.19,24.42-52.77C4358.52,1508.62,4311.79,1392.62,4282.75,1421.66Z"/><rect class="cls-13" x="4088.93" y="1357.66" width="48.77" height="93.83" rx="8.62" transform="translate(-121.9 2381.9) rotate(-31.85)"/><line class="cls-9" x1="4116.13" y1="1365.98" x2="4076.66" y2="1391.1"/><line class="cls-9" x1="4151.26" y1="1419.45" x2="4109.32" y2="1446.01"/><path class="cls-36" d="M4072.63,1394.28s7.25-16,10.61-16.73,14.86,8.18-2.12,30.39C4081.12,1407.94,4065.89,1409.38,4072.63,1394.28Z"/><path class="cls-36" d="M4079.58,1411.77s7.25-16,10.61-16.73,14.86,8.18-2.12,30.39C4088.07,1425.43,4072.83,1426.87,4079.58,1411.77Z"/><path class="cls-36" d="M4088.23,1423.62s7.25-16,10.61-16.72,14.86,8.18-2.12,30.39C4096.72,1437.29,4081.48,1438.72,4088.23,1423.62Z"/><path class="cls-36" d="M4096,1442.38s7.25-16,10.61-16.72,14.86,8.18-2.12,30.39C4104.51,1456.05,4089.28,1457.49,4096,1442.38Z"/><path class="cls-37" d="M4304.72,1855.11s-112.4,281-124.32,362.77-37.46,447.86-37.46,447.86,59.6,20.44,98.77,10.22c0,0,76.63-326,90.25-381.83s40.87-132.44,74.93-192.05,88-81.67,130.87-97.88l-16.49-57.08Z"/><path class="cls-37" d="M4661.61,1846.84s-26.18,124.25-134.77,161.52-255.25-20.67-255.25-20.67,86.1,16.33,223.11,229.49c0,0-25.15,59.32-63,66.57,0,0-368.44-272.17-374.65-347.75s297.31-103.31,297.31-103.31h293.75Z"/><path class="cls-38" d="M4082.43,1892.11a3.42,3.42,0,0,1-3.31-2.61l-4.66-19.29a3.44,3.44,0,0,1,.41-2.58,3.37,3.37,0,0,1,2.1-1.53L4404.25,1787a3.58,3.58,0,0,1,.8-.1,3.4,3.4,0,0,1,3.31,2.61l4.66,19.29a3.4,3.4,0,0,1-2.51,4.11L4083.23,1892A3.08,3.08,0,0,1,4082.43,1892.11Z"/><path d="M4405.05,1790.33l4.66,19.29-327.28,79.08-4.66-19.29,327.28-79.08m0-6.81a6.85,6.85,0,0,0-1.6.19l-327.28,79.08a6.81,6.81,0,0,0-5,8.22l4.66,19.29a6.78,6.78,0,0,0,6.63,5.21,6.59,6.59,0,0,0,1.59-.19l327.28-79.08a6.82,6.82,0,0,0,5-8.22l-4.66-19.29a6.81,6.81,0,0,0-6.62-5.21Z"/><path class="cls-38" d="M4065.38,1884.39a3.39,3.39,0,0,1-3-1.76l-163.12-294.54a3.42,3.42,0,0,1,1.33-4.63l17.36-9.62a3.52,3.52,0,0,1,1.65-.42,3.4,3.4,0,0,1,3,1.75l163.12,294.55a3.39,3.39,0,0,1-1.33,4.63L4067,1884A3.39,3.39,0,0,1,4065.38,1884.39Z"/><path d="M3919.62,1576.82l163.12,294.55-17.36,9.61-163.12-294.54,17.36-9.62m0-6.81a6.77,6.77,0,0,0-3.3.86l-17.36,9.61a6.82,6.82,0,0,0-2.66,9.26l163.12,294.54a6.83,6.83,0,0,0,4.08,3.25,6.86,6.86,0,0,0,5.18-.59l17.36-9.61a6.82,6.82,0,0,0,2.66-9.26l-163.12-294.55a6.78,6.78,0,0,0-4.08-3.24,6.68,6.68,0,0,0-1.88-.27Z"/><ellipse class="cls-25" cx="4075.71" cy="1875.6" rx="10.95" ry="11.52" transform="translate(-282.85 811.55) rotate(-10.99)"/><path class="cls-38" d="M4076,1893.64a17.88,17.88,0,0,1-17.27-14.73c-1.9-9.78,4.19-19.21,13.57-21a17.26,17.26,0,0,1,3.2-.31,17.87,17.87,0,0,1,17.26,14.74c1.9,9.77-4.19,19.21-13.57,21A17.16,17.16,0,0,1,4076,1893.64Z"/><path d="M4075.46,1861a14.48,14.48,0,0,1,13.92,12c1.54,7.94-3.33,15.57-10.88,17a13.73,13.73,0,0,1-2.54.24,14.49,14.49,0,0,1-13.93-12c-1.54-8,3.33-15.58,10.88-17a13.12,13.12,0,0,1,2.55-.25m0-6.81h0a19.93,19.93,0,0,0-3.85.37,20.28,20.28,0,0,0-13.29,9.11,21.74,21.74,0,0,0-3,15.92A21.28,21.28,0,0,0,4076,1897a19.91,19.91,0,0,0,3.84-.37c11.23-2.18,18.52-13.41,16.27-25a21.29,21.29,0,0,0-20.61-17.49Z"/><path class="cls-36" d="M4123.72,1283.54l10.44,28.28a17,17,0,0,0,17.69,11h0s7,15.56,2.19,21.48-7.84,17.68,4.09,16.46l16.7-1.7s-.74,11.42,13.07,22.67,30.77,23,57.08,9.1,30.91,1.38,40.1,8.86,23,45.14,23,45.14l78.83-74.86s-75.24-28.49-77.31-48.78-45.25-124.38-122.8-116.47S4114,1257.07,4123.72,1283.54Z"/><path class="cls-39" d="M4279.5,1338.85c-7,0-12.38-2.53-16-7.52,4.07-6.58,16.34-28.56,11.19-47a22.24,22.24,0,0,0-21.15-16.51,19.17,19.17,0,0,0-14.43,6.35c-3.14,3.47-6.61,9.81-6.1,20.64a7.33,7.33,0,0,1-1.71.26h-.12a3.71,3.71,0,0,0-.26-.86c-1.67-3.6-16.76-35.25-32.41-35.25-.4,0-.8,0-1.21.06a10.84,10.84,0,0,1-1.13.06c-9.69,0-11.84-14.91-11.86-15.06a3.44,3.44,0,0,0-1.37-2.3,3.4,3.4,0,0,0-2-.65,2.88,2.88,0,0,0-.59,0,96.6,96.6,0,0,0-27.15,10c-16.54,9.21-26.35,22.12-28.64,37.56-9.74-4.91-33.11-18.2-38.44-34.93-2-6.37-1.2-12.47,2.54-18.65,19.18-31.64,100.47-34,101.29-34a3.65,3.65,0,0,0,1.48-.38c.24-.13,24.41-12.47,50.28-12.47,11.63,0,21.89,2.49,30.49,7.4,25,14.25,30.44,79.19,33.06,110.4,1.17,13.88,1.67,18.69,2.72,21C4305.77,1330.48,4292.23,1338.84,4279.5,1338.85Z"/><path d="M4241.74,1191.66c11,0,20.72,2.34,28.8,6.95,6.69,3.81,16.12,14.76,23,45.23,4.92,21.72,7,46.26,8.35,62.5.92,10.92,1.42,16.52,2.26,19.88-3.65,3.27-14.47,9.22-24.66,9.22-5.05,0-8.95-1.45-11.81-4.42,5.07-8.74,15.35-29.58,10.32-47.63a25.67,25.67,0,0,0-24.43-19,22.56,22.56,0,0,0-17,7.48,27.19,27.19,0,0,0-6.37,13.48c-1.65-3-3.75-6.56-6.17-10.16-8.88-13.23-17.23-19.65-25.53-19.65-.52,0-1,0-1.55.07a7.29,7.29,0,0,1-.79.05c-6.59,0-8.47-12-8.48-12.1a6.85,6.85,0,0,0-2.74-4.61,6.78,6.78,0,0,0-4-1.31,6.06,6.06,0,0,0-1.19.11,100.38,100.38,0,0,0-28.21,10.38c-15.87,8.84-25.89,21-29.45,35.45-11.72-6.41-28.62-18-32.72-30.87-1.72-5.38-1-10.57,2.21-15.85,15.11-24.94,76.19-31.81,98.45-32.35a6.71,6.71,0,0,0,3-.76c.23-.12,23.6-12.08,48.71-12.08m0-6.81c-27.06,0-51.84,12.84-51.84,12.84s-83.74,2-104.12,35.63,41.74,60.51,41.74,60.51c1.7-40.17,53.45-49.39,53.45-49.39s2.39,18,15.24,18c.48,0,1,0,1.48-.08a8.25,8.25,0,0,1,.86,0c13.92,0,29.32,33.27,29.32,33.27.22,2.19,1.75,2.83,3.47,2.83a15.25,15.25,0,0,0,5.3-1.3c-1.83-18,7.41-26,16.94-26a18.73,18.73,0,0,1,17.87,14c5.64,20.26-12,46.12-12,46.12,4.66,8.06,12.15,10.92,20,10.92,16.51,0,34.68-12.61,31.83-16.21-4.2-5.3-2-113.15-37.41-133.35-10.13-5.78-21.34-7.84-32.18-7.84Z"/><path class="cls-25" d="M4354.36,1350.77l-11-8.52s-43,18.5-64.45,55v31.44s-14.73,103.68,9.58,170,82.23,203,65.84,234c0,0,79.18,43.59,178.09,9.22s-101-417.87-117.35-434.21S4354.36,1350.77,4354.36,1350.77Z"/><path class="cls-37" d="M4362.4,1365.88l26.49-4.74s63.6,0,139.89,59.12S4692.91,1689.81,4732,1728.9s91.82,39.13,91.82,39.13-95.13,116.08-195.07,116.08c-97.27,0-138.31-29.21-172.64-96s-78.31-111.8-126.51-160c-15.67-15.66-33-47.12-48.65-68.36C4244.16,1509.8,4309.13,1397.71,4362.4,1365.88Z"/><path class="cls-37" d="M4341.88,1479.39s5.72,95.35,93.45,135.4,133.5,43.87,133.5,43.87l-289.89,85.82,26.7,76.29s328-64.85,423.39-118.25-174.47-307-271.27-324.21S4341.88,1479.39,4341.88,1479.39Z"/><path class="cls-40" d="M4312.41,1605.5s-17.5-61.14-7.75-96.38a32.57,32.57,0,0,0-11.83-34.3l-8.94-6.87,15.73,2.13a19.36,19.36,0,0,0,21.75-16.14c4-25.66,18.09-70.88,67.52-92.8l-28.7-13.13s-111.74,47.23-99.65,153.49C4260.54,1501.5,4263.58,1556.67,4312.41,1605.5Z"/><path class="cls-36" d="M4282.68,1748.36l-68,4.94h-32.09a8,8,0,0,0-5.16,1.87l-29.48,24.52a6.87,6.87,0,0,0,7.94,11.16l23.78-14.35,25.84,5.69L4192.42,1806a8.6,8.6,0,0,0,13.12,10.68l18.37-15.7-8.94,12.54a6.81,6.81,0,0,0,1.36,9.32h0a6.81,6.81,0,0,0,8.61-.19l9.63-8.22-2.17,3a6.81,6.81,0,0,0,10,9.13l8.62-7.35a56.77,56.77,0,0,0,8.64,2c25.25,3.94,46-7.34,46-7.34Z"/><path class="cls-21" d="M4191.06,1369.38s17-10.22,27.25-15.32,0,17-5.11,23.84C4213.2,1377.9,4197.87,1376.19,4191.06,1369.38Z"/><circle class="cls-41" cx="4176.59" cy="1320.85" r="7.66" transform="translate(289.31 3340.16) rotate(-45)"/><path class="cls-42" d="M2641.35,1957.73l21.41,478.2-43.28,331.81,135.37-3.67s34.23-326.08,34.23-346.69,29.66-348.3,29.66-348.3Z"/><path class="cls-42" d="M2954,1888.27s44.1,277.94,73.37,530.44c18,155.31,21.9,321.91,31.64,346.24,0,0-109.32,2.79-125,2.79l-36.53-333.19-108.39-303.64s-62.43-16.49-116-51.52-25.67-165.12-25.67-165.12Z"/><path class="cls-43" d="M2959.78,1505.43l1.74,5s30.19-9.44,34.11-13.36,11-11.86,11-11.86l7.85-7.32-15.69-43.87-37.31,53.17-5.11,11.33Z"/><path class="cls-43" d="M2899.36,1131.91l11,25.48a38,38,0,0,1,1.29,26.92c-4,12.2-8.36,29.26-3.38,34.23s17.27,15.12,25.7,21.94a8.5,8.5,0,0,1-.35,13.5l-12.64,9.19s12,32.82-12.71,44.63-37.83,19.48-37.83,34.68,7.88,49.33,7.88,49.33l-118.14-5.64s21.07-40.3,21.07-75.74-39.44-118.14-21.07-149.64S2870.48,1055.78,2899.36,1131.91Z"/><path class="cls-25" d="M2742.94,1378.41l19.19-38,105.37,32.5a33.82,33.82,0,0,1,22.75,23.74l4.29,16.31Z"/><path class="cls-44" d="M3128.86,1583.67a6.6,6.6,0,0,1-4.14-1.19l-160.69-134a2.13,2.13,0,0,1-.86-1.81c0-1.09.87-2.79,3-4.31l130-91.41a12.33,12.33,0,0,1,6.92-2.21,6.6,6.6,0,0,1,4.14,1.2L3268,1483.93a2.11,2.11,0,0,1,.86,1.81c0,1.09-.86,2.8-3,4.32l-130,91.4A12.31,12.31,0,0,1,3128.86,1583.67Z"/><path d="M3103.15,1352.2a3.54,3.54,0,0,1,2,.41L3265.17,1486a5.36,5.36,0,0,1-1.32,1.24l-130,91.41a9,9,0,0,1-5,1.59,3.57,3.57,0,0,1-2-.41l-160.06-133.42a5.56,5.56,0,0,1,1.32-1.25l130-91.4a9,9,0,0,1,5-1.59m0-6.81a15.78,15.78,0,0,0-8.88,2.83l-130,91.4c-4.86,3.42-5.93,8.58-2.39,11.53l160.69,133.94a9.81,9.81,0,0,0,6.32,2,15.81,15.81,0,0,0,8.89-2.83l130-91.41c4.86-3.41,5.93-8.57,2.39-11.52l-160.68-134a9.89,9.89,0,0,0-6.33-2Z"/><polygon class="cls-45" points="2985.08 1445.58 3102.1 1363.32 3250.13 1486.7 3133.1 1568.97 2985.08 1445.58"/><path d="M3101.93,1367.61l142.6,118.87-111.25,78.2-142.61-118.87,111.26-78.2m.35-8.58-122.8,86.32,153.45,127.91,122.79-86.33L3102.28,1359Z"/><path class="cls-43" d="M2960.28,1500.63s14.39-4.06,21.68-11.35,10.53-37.25,10.53-37.25l14.3-21.39a11.26,11.26,0,0,0,1.63-8.78l-1.17-5.19a5.14,5.14,0,0,0-9.27-1.77c-8.9,13.06-24.26,35.18-30.26,41.18-8.68,8.67-33.72,19.43-33.72,19.43S2948.3,1505.38,2960.28,1500.63Z"/><path class="cls-46" d="M2636,1446.62a114.26,114.26,0,0,1,126-74.42l134.79,22A94.09,94.09,0,0,1,2977.6,1495l-25.47,314.11,10.29,76.18s-164.47,63.49-315,29l-18.08-281.53C2621.12,1581.85,2614.87,1505.86,2636,1446.62Z"/><path class="cls-47" d="M2783,1318.45c-2.67-6.76-11.73-26.54-31.24-41.43-21.2-16.18-47.22-73.57-38.36-116.69,6.86-33.41,31.62-37,42-37,1.49,0,2.38.09,2.39.09l.35,0a3.45,3.45,0,0,0,2-.63c.55-.39,55.1-38.88,95-38.88a44.65,44.65,0,0,1,17.53,3.21c13.78,5.87,21.86,13,24,21.14,2.24,8.41-2.72,15.11-2.77,15.18a3.28,3.28,0,0,0-.47.86c-.74.66-6,4.31-30.27,4.31-35.55,0-41.14,35-41.19,35.33a3.41,3.41,0,0,0,1.27,3.18c9.05,7.07,23.56,20.88,24,27.85a2.14,2.14,0,0,1-.61,1.88c-6.29,6.3-5.44,31.65,2.52,75.35a1.43,1.43,0,0,1-.31,1.18,1.45,1.45,0,0,1-1.13.53,1.47,1.47,0,0,1-1.42-1.08c-4.88-18.47-7.92-32.39-7.92-36.34,0-6.38-7.08-18.58-18.18-18.58-6.4,0-12.6,3.94-18.45,11.73a19.17,19.17,0,0,0-3.65,16.35c3.69,16.46,27.13,31.07,34.74,35.44a49.59,49.59,0,0,1-48.07,37Z"/><path d="M2855.09,1087.32a41.31,41.31,0,0,1,16.2,2.94c12.48,5.33,20.11,11.81,22,18.74a15.61,15.61,0,0,1-2.18,12.42c-.15.2-.28.39-.41.59-1.57.81-7.87,3.21-27.59,3.21-20.09,0-31.2,10.48-37,19.28a51.84,51.84,0,0,0-7.58,19,6.81,6.81,0,0,0,2.54,6.37,148.81,148.81,0,0,1,12.28,11c8.73,8.77,10.14,13,10.36,14.13-3.16,3.49-5.93,10.57-4.18,33.2a27.64,27.64,0,0,0-3.47-5.44c-4.32-5.25-10-8.15-16-8.15-7.53,0-14.65,4.41-21.18,13.09a22.75,22.75,0,0,0-4.24,19.15c3.69,16.44,24.3,30.48,34,36.3a46.17,46.17,0,0,1-43.52,32c-3.65-8.48-13.09-26.72-31.45-40.73-10.34-7.89-21.91-26.36-29.48-47.06-8.76-24-11.46-47.47-7.6-66.23,6.36-31,29.12-34.3,38.61-34.3,1.26,0,2,.07,2,.07h0a5.79,5.79,0,0,0,.72,0,6.82,6.82,0,0,0,4-1.26c.54-.38,54.23-38.25,93.06-38.25m0-6.81c-41.51,0-97,39.51-97,39.51s-1-.11-2.75-.11c-9,0-37.73,3-45.29,39.74-9,43.82,16.81,102.66,39.63,120.07s30.93,42.13,30.93,42.13h4.12a53.12,53.12,0,0,0,51.64-40.62l.37-1.51s-49-25.81-32.31-48c5.73-7.62,11.12-10.37,15.73-10.37,8.82,0,14.77,10,14.77,15.18,0,6.21,5.72,28.43,8,37.21a4.87,4.87,0,0,0,9.5-2.11c-3-16.72-11-64.77-3.46-72.33,9.17-9.17-23.68-34.82-23.68-34.82s4.8-32.42,37.82-32.42,33.46-6.53,33.46-6.53,18.17-24.09-22.65-41.5a47.88,47.88,0,0,0-18.87-3.49Z"/><ellipse class="cls-6" cx="2907.78" cy="1209.6" rx="15.81" ry="22.34"/><line class="cls-6" x1="2891.97" y1="1209.6" x2="2828.21" y2="1221.22"/><path class="cls-43" d="M3052.53,1609.72s10.41-33,15-37.64,27.87-17.8,27.87-17.8l17-39.49s14.71,5.42,14.71,12.39-21.67,46.45,1.55,59.48l58.79-37.41s-5,24-13.11,32.12-94.45,77.15-94.45,77.15Z"/><polygon class="cls-25" points="3025.74 1616.29 3048.84 1602.11 3087.72 1658.52 3068.32 1677.6 3025.74 1616.29"/><path class="cls-46" d="M2787.51,1466.23s-62.12,70.75-71.19,230.37,52.61,154.18,92.51,154.18,264.83-170.51,264.83-170.51l-50.79-72.55-145.11,79.81s61.67-117.9,61.67-190.46S2812.53,1418.08,2787.51,1466.23Z"/><path class="cls-6" d="M2910,1272.31s-11.92,6.81-25.55,3.4"/><path class="cls-48" d="M3466,1274.52s-67.5,10.53-53.82,85.08,25.55,121.08,10,149.35c0,0-10,34.67,28.28,34.67s69.14-25.33,61.48-90.2,28.83-7.41,28.83-78.56S3498.81,1241.68,3466,1274.52Z"/><path class="cls-49" d="M3432.22,1842.59s-16,64.93-16,153.51,60,334.64,60,334.64l57,336.45h56.42L3584,2288l-11.71-273.28h17.35l14.46,277.17,17.59,375.35h56.15s15.93-325.83,15.93-335.55,41.23-186.91,41.23-345.5c0-101.13-45.9-191.14-45.9-191.14l-257,11Z"/><path class="cls-50" d="M3721.77,1601.8l57.76,68.53s24.76,75.41,45.08,118.22c19.32,40.72,35,78.84,35,78.84s.82,25.55,6.76,41.13,22,34.41,22,34.41,8.68-.63,4.82-10.75-10-28.8-8.17-29.5,17.2,32.68,16.83,44.14.08,20.25,3.89,22,6.71-10.73,8-23.87a9.12,9.12,0,0,0,6.08-5.47c2.13-4.77,0-13.16,0-13.16s.53-.34,2-3.67-1.85-38-13.84-54.24-18.49-20.87-18.49-20.87-35.62-148-53.31-194.37-48.46-92.25-48.46-92.25Z"/><path class="cls-51" d="M3512.73,1405.34s-134.2-23.88-175.42,130.13L3321,1563.79s45.74,39.2,83.86,39.2l28.32-49s-28.32,59.9,1.09,89.31-2.18,171-2.18,171,103.46,37,259.2,0c0,0-28.31-135-16.33-167.72s25.05-42.48,16.33-80.6l32.63,40.17s46.23-8.24,83.26-27.84L3786,1547.45s-.88-116.57-71.88-134-108.72-11.7-108.72-11.7Z"/><path class="cls-52" d="M3512.73,1405.34s-27.3,16.86-12.06,130.13,16.34,294-12,332.17l-82.77-10.89s33.76-162.27,20.69-204.75-15.24-81.68,5.45-116.53,2.18-122,2.18-122S3467.52,1400,3512.73,1405.34Z"/><path class="cls-52" d="M3616.68,1401s26.66,64.78,14.68,118.14-12,306,6,343.07l78.95-13.07s-26.06-240.94-19.56-267.5c0,0-27.24-115.79,6.75-170.63C3703.5,1411,3676.28,1394.89,3616.68,1401Z"/><rect class="cls-13" x="3533.17" y="1560.88" width="55.22" height="90.5" rx="7.5"/><path class="cls-19" d="M3550.94,1594.92a7.16,7.16,0,0,1-7.15-7.15V1579a7.15,7.15,0,0,1,14.3,0v8.75A7.16,7.16,0,0,1,3550.94,1594.92Z"/><path d="M3550.94,1575.28a3.74,3.74,0,0,1,3.74,3.74v8.75a3.74,3.74,0,1,1-7.48,0V1579a3.74,3.74,0,0,1,3.74-3.74m0-6.81a10.56,10.56,0,0,0-10.55,10.55v8.75a10.55,10.55,0,1,0,21.1,0V1579a10.56,10.56,0,0,0-10.55-10.55Z"/><path class="cls-50" d="M3327.62,1569.08s31,25.89,72.9,33.75c0,0-14.1,54.51-22.27,62.68l134.41-25.23a10.31,10.31,0,0,0,8.43-10.1c0-8.93,1.87-22.28,12.26-26.1v24.21s61.73-11.15,66.52-11.15,6.32,4.83,0,11.15a49,49,0,0,1-12,9s9.53,4.27,1.54,14.06c0,0,5.93,5.48.14,11.27,0,0,3.44,8.88-3.64,8.88,0,0,.6,6.11-6.92,6.11s-30.82,7-53.31,0c-9.79-3.06-131.23,46.48-189.33,61.51S3327.62,1569.08,3327.62,1569.08Z"/><path class="cls-48" d="M3540.78,1134.35s-6.89,4.35-31,11c-22,6-52,31-52,73.89s.84,76.32,29.67,105.15,27.8,29.85,44.22,46.27,60.66-9.58,82.1-31,37.4-44.7,31.93-79.36-.91-52.91-17.33-86.66S3560.05,1115.07,3540.78,1134.35Z"/><path class="cls-50" d="M3590.47,1331.19c8.21-15.82,13.17-21,15.91-30.16,0,0-13.78-5.53-13.78-49.73s-14.92-45.81-14.92-45.81-4.79-9.58-24.49,26.1c-17.08,30.93-55.76,33.05-65.76,33.07-.08,16.69,2.07,54.81,22.62,69.19,26.63,18.64,16,57.52,8,65.51s-15.45,50.6,27.16,61.25,70.3-42.61,62.85-57.52S3576.09,1358.88,3590.47,1331.19Z"/><path class="cls-53" d="M3551.8,1346c-1.36,0-5.51,0-13.26-15.51a3.41,3.41,0,0,1,3-4.93H3562a3.4,3.4,0,0,1,3,4.93C3557.31,1346,3553.16,1346,3551.8,1346Z"/><path d="M3562,1328.92s-6.81,13.62-10.22,13.62-10.22-13.62-10.22-13.62H3562m0-6.81h-20.44a6.81,6.81,0,0,0-6.09,9.85c.08.15,1.88,3.74,4.15,7.38,3.76,6,7.26,10,12.16,10s8.41-4,12.16-10c2.28-3.64,4.07-7.23,4.15-7.38a6.81,6.81,0,0,0-6.09-9.85Z"/><path class="cls-9" d="M3541.58,1272.72s1.71,11.92,1.71,17-1.71,18.73-1.71,18.73l6.82,1.71"/><circle cx="3520.3" cy="1287.2" r="7.66" transform="translate(120.89 2866.24) rotate(-45)"/><circle cx="3569.68" cy="1285.49" r="7.66" transform="translate(1498.43 4464.33) rotate(-76.72)"/><path class="cls-54" d="M1598.84,1715.38h270.1l10.15,191.7a224.13,224.13,0,0,0,86.25,165.1l67.77,52.7H1699.72l-35.67-33.39a259.41,259.41,0,0,1-81.85-177.3l-8.07-172.92A24.73,24.73,0,0,1,1598.84,1715.38Z"/><path class="cls-55" d="M1603.76,1914.19l-8.07-172.92a24.73,24.73,0,0,1,24.71-25.89h-21.56a24.73,24.73,0,0,0-24.71,25.89l8.07,172.92a259.41,259.41,0,0,0,81.85,177.3l27.77,27.54,29.46,5.85-35.67-33.39A259.41,259.41,0,0,1,1603.76,1914.19Z"/><polygon class="cls-56" points="1632.62 2637.63 1623.09 2637.63 1606.96 1837.35 1648.74 1837.35 1632.62 2637.63"/><polygon class="cls-56" points="2388.75 2637.63 2379.22 2637.63 2363.09 1837.35 2404.87 1837.35 2388.75 2637.63"/><path class="cls-57" d="M2058.05,1814s10.76,7.37,35.68,10.77c0,0,15.3,1.13,11.9-5.39s-15.29-13.17-15.29-13.17h15.78l.09.19a18,18,0,0,0,18.19,11h0a18,18,0,0,0,15.38-24c-3.14-8.77-7.78-17.42-14.32-20.18-14.73-6.23-57.16-4.2-57.16-4.2S2046.73,1793.56,2058.05,1814Z"/><path class="cls-25" d="M2106.21,1806.36s-4.81-6.59-8.41-6.87-17.52,0-17.52,0l10.06,6.68Z"/><path class="cls-58" d="M1907.85,1540.28s47.61,27,48.63,45.43-24.31,171.88-24.31,171.88l143,10.23s-24.56,13.3-15.35,51.16c0,0-139.15,1.62-172.91-8.91S1907.85,1540.28,1907.85,1540.28Z"/><path class="cls-59" d="M2075.17,1767.82l-50.21-3.59c-8.86,11.86-19.46,32-12.76,54.69,27.14.3,47.62.06,47.62.06C2050.61,1781.12,2075.17,1767.82,2075.17,1767.82Z"/><path class="cls-57" d="M1502,1520.91s25.46-46.16,7.55-62.44-29.8-13-29.8-13-9.19,8.89.54,13.77,16.79,17.75,6.62,19.6-19,2.31-19.43-8.33,0-21.85,0-21.85,8.34,2.42,12.27-5.44-3-18-12.48-18.51-17.83,7.4-17.37,11.57c.42,3.83-14.8-19-34.16-30.19a8,8,0,0,0-9.28.87l0,0a8,8,0,0,0,1,13c9.47,5.81,23.33,15.94,30,28.71l-3.7,3.35s-20.55-14.8-32.34-22a8.08,8.08,0,0,0-11.27,2.91l-.69,1.23a8.08,8.08,0,0,0,2.84,10.85l33.59,20.46-1.39,6.48-26.12-11.15a8.07,8.07,0,0,0-11,5.36h0a8.07,8.07,0,0,0,4.6,9.47l31.1,13.43s10.58,41.18,21.71,52S1495.86,1534.08,1502,1520.91Z"/><polygon class="cls-25" points="1467.52 1448.7 1459.91 1448.7 1467.52 1470.55 1467.52 1448.7"/><path class="cls-9" d="M1486.85,1483s-30,4.14-26.94,41.77"/><path class="cls-60" d="M1923.56,1905.65h238s62.7,11.32,0,98.79-145.79,137-145.79,137,9.51-75.81-53.56-58.32L2026,2005.9s-131.21,39.37-176.41,40.82S1803.62,1916.2,1923.56,1905.65Z"/><path class="cls-60" d="M1912.49,1905.65c-18.42-46.77-248,0-248,0s4.46,102.61,39.25,154.79S1892,2216,1892,2216,1982,2405,1992.18,2442.88c0,0,41-27.41,88.1-27.41,0,0-70.59-230.21-82.87-248.63S1897.14,1998,1897.14,1998"/><path class="cls-58" d="M1912.25,1544.45c-12.54-15.21-54.7-22.4-78-29.83-28.7-9.15-82.71,0-82.71,0s-84.7,13.17-100.64,43.47c-12.21,23.2,29.83,143.68,50.17,198.8a78.46,78.46,0,0,1-.45,55.59l-36.13,93.17c75.07,26.21,161.93,25,259,0,0,0-33-84.41-21.88-133.84s84.89-78.21,60.56-121.25c-8.6-15.22-17.55-28.44-25.31-40.24"/><path class="cls-25" d="M1936.93,1610.32c-14.2-21.57-24.44-38.37-21.34-53.83.9-4.52-.42-8.49-3.34-12"/><path class="cls-59" d="M1731.41,1521.47s-21.35,31.67,51.4,39,76.58-33.72,76.58-33.72-1.61-17-27.13-21.67c-30.73-5.6-59.29,4.27-67.42,1.3S1737.35,1510.56,1731.41,1521.47Z"/><path class="cls-42" d="M1742.67,1312.73s-38.87-45-77.75-20.66-9.72,87.48-47.39,103.28c0,0,48.6,41.3,94.77-17S1742.67,1312.73,1742.67,1312.73Z"/><path class="cls-42" d="M1763,1376.75s46.48,10.38,88.46,4.38a24.44,24.44,0,0,0,20.84-26.09c-1.68-22-11.83-54.42-55.07-66-67.89-18.13-92.81,28.32-92.81,28.32s-59.49,81.57,5.38,130.28S1763,1376.75,1763,1376.75Z"/><path class="cls-57" d="M1859.39,1373s3.92,47.18-6.3,68.21-29.83,17.72-28.88,34.93c.69,12.46,7.4,27.93,11,35.51a16,16,0,0,1-1.79,16.93c-4.52,5.63-13.88,11.15-33.16,11.61-12.84.31-22.56-.86-29.83-2.58a15.72,15.72,0,0,1-9.91-23.49c8.07-13.14,16.07-33,2.46-46.59-22-22-40.15-39.19-30.59-54.49s23.9-3.82,23.9-3.82l6.69-32.51S1851.45,1381.46,1859.39,1373Z"/><path class="cls-58" d="M1650.93,1558.09s-47.2,74.3-58.67,125.14-86.33-166.65-86.33-166.65-24,31.86-66.37,23.7c0,0,63.55,195.2,124.28,258.75S1713.54,1631,1713.54,1631"/><path class="cls-59" d="M1505.93,1516.58s-24,31.86-66.37,23.7c0,0,5,15.31,13.49,38.75,35.77-2.48,55.8-12.93,67-23.29C1511.58,1533,1505.93,1516.58,1505.93,1516.58Z"/><rect class="cls-61" x="1554.75" y="1828.48" width="922.5" height="17.74" rx="8.87"/><path class="cls-62" d="M2048,1828.48h292.7a13.75,13.75,0,0,0,13.75-13.75H2034.2A13.76,13.76,0,0,0,2048,1828.48Z"/><path class="cls-63" d="M2085.61,1828.48H2407.5a13.75,13.75,0,0,0,13.74-13.75H2101.79C2099.13,1820.8,2095.94,1828.48,2085.61,1828.48Z"/><path class="cls-63" d="M2486.18,1634.68H2202.12a23.31,23.31,0,0,0-21,13.24l-80,166.81h320.19L2498.36,1654A13.52,13.52,0,0,0,2486.18,1634.68Z"/><path class="cls-62" d="M2211.11,1634.68h-17a23.33,23.33,0,0,0-21,13.24l-80,166.81h17l80-166.81A23.33,23.33,0,0,1,2211.11,1634.68Z"/><path class="cls-9" d="M1799.89,1448.23s13.62,6.81,25.54,0"/><path class="cls-9" d="M1818.62,1417.57s6.81,5.11,5.11,10.22-5.11,6.81-5.11,6.81"/><circle cx="1787.97" cy="1409.06" r="6.81"/><path d="M1845.86,1409.06a6.81,6.81,0,1,1-6.81-6.81A6.81,6.81,0,0,1,1845.86,1409.06Z"/></g><rect class="cls-3" width="6550" height="559"/><text class="cls-64" transform="translate(3077.59 677.84)">4F1FF5</text></svg>